:SAMPLES-PER-SECOND 30
:FULLY-SPECIFIED
:DEGREES
174
root  6.31099 36.6093 -6.92341 159.976 -67.1393 -164.558
RightUpLeg  -11.0097 3.73112 3.78145
RightLeg  38.6554 -6.4567 -5.79562
RightFoot  -20.2507 0.938663 13.7402
RightToes  -5.8209e-011 0 -3.6325e-017
Spine  24.9616 -2.42933 6.6662
Spine1  -21.5982 -0.247348 4.7022
HEad  4.49668 1.81039 -3.9032
LeftShoulder1  0.998422 11.9291 23.0591
LeftArm  -80.5952 -16.4572 -9.46567
LeftForeArm  98.0079 -71.6902 -138.574
LeftHand  -0.92258 -0.820846 17.3326
RightShoulder  1.03804 -10.4004 -26.5237
RightArm  -91.428 9.70259 14.3633
RightForeArm  133.146 59.4354 160.409
RightHand  -4.5994 9.089 -35.9991
LeftUpLeg  -3.71477 -6.131 12.7367
LeftLeg  62.6538 -2.90849 -5.52772
LeftFoot  1.77527 2.29882 -19.8633
LeftToes  6.82088e-011 -2.45093e-011 5.71991e-013
175
root  4.86111 36.6652 -7.42807 156.389 -69.2548 -159.275
RightUpLeg  -8.62889 -0.236179 4.39284
RightLeg  36.504 -4.88744 -4.17507
RightFoot  -22.4092 1.26109 14.5285
RightToes  -5.8209e-011 0 -3.6325e-017
Spine  23.1796 -2.261 9.59332
Spine1  -22.5326 0.273036 2.67216
HEad  3.07564 1.20562 -3.75157
LeftShoulder1  1.01784 11.2253 24.6037
LeftArm  -76.7745 -22.7554 -10.6939
LeftForeArm  22.0573 -74.3569 -56.3191
LeftHand  -1.27445 -2.39626 18.9996
RightShoulder  1.14391 -10.6055 -27.6988
RightArm  -88.5655 12.1231 18.2435
RightForeArm  126.779 64.9862 153.57
RightHand  -4.78523 9.47218 -36.4487
LeftUpLeg  -9.04109 -8.54985 14.7656
LeftLeg  64.4698 0.889925 2.55076
LeftFoot  -3.17631 0.981567 -13.5501
LeftToes  6.82088e-011 -2.45093e-011 5.71991e-013
176
root  3.18128 37.2879 -7.93458 159.399 -71.8107 -161.17
RightUpLeg  -4.32765 -3.57238 2.12104
RightLeg  31.1845 -4.27495 -3.0169
RightFoot  -20.9166 1.11461 14.9178
RightToes  -5.8209e-011 0 -3.6325e-017
Spine  18.7091 -0.715701 6.50734
Spine1  -21.1587 0.848605 4.8833
HEad  4.09136 0.60293 -3.42618
LeftShoulder1  0.90208 9.22144 27.5981
LeftArm  -68.6575 -29.2523 -10.6289
LeftForeArm  -14.5455 -47.145 -11.3682
LeftHand  -1.76268 -3.75793 22.4441
RightShoulder  1.10411 -9.56964 -30.0853
RightArm  -80.3722 16.7767 20.32
RightForeArm  72.8622 77.3942 98.2464
RightHand  -4.9843 9.65378 -37.4327
LeftUpLeg  -11.7348 -10.6207 12.7606
LeftLeg  60.0137 4.44759 8.72244
LeftFoot  -6.49984 0.406725 -8.86019
LeftToes  6.82088e-011 -2.45093e-011 5.71991e-013
177
root  1.37144 38.2819 -8.36574 167.372 -74.5648 -169.822
RightUpLeg  2.23237 -5.16259 -1.83373
RightLeg  24.6507 -5.22002 -2.94231
RightFoot  -15.6409 0.512828 16.7866
RightToes  -5.8209e-011 0 -3.6325e-017
Spine  14.9078 0.606335 0.984046
Spine1  -19.5587 1.12616 7.20822
HEad  6.99629 0.0177505 -2.77377
LeftShoulder1  0.636679 6.98195 30.1261
LeftArm  -56.6943 -32.2718 -12.581
LeftForeArm  -18.0288 -31.7033 -7.49707
LeftHand  -1.90795 -3.52971 24.7891
RightShoulder  0.872034 -7.69006 -32.74
RightArm  -70.425 18.6907 20.1385
RightForeArm  -4.69336 63.5606 21.9622
RightHand  -5.05137 9.78696 -37.5884
LeftUpLeg  -10.1973 -13.1325 7.622
LeftLeg  49.9216 8.46683 11.0799
LeftFoot  -8.46882 0.191911 -5.65963
LeftToes  6.82088e-011 -2.45093e-011 5.71991e-013
178
root  -0.459003 39.36 -8.59714 176.343 -76.2787 -179.24
RightUpLeg  7.01827 -6.11632 -5.31536
RightLeg  19.9727 -6.10281 -3.10721
RightFoot  -6.59152 -0.893959 20.0145
RightToes  -5.8209e-011 0 -3.6325e-017
Spine  11.8561 1.11016 -0.20468
Spine1  -17.8983 1.35489 4.06086
HEad  9.3242 -0.557902 -1.89363
LeftShoulder1  0.544988 6.69623 29.1087
LeftArm  -52.9105 -31.8285 -15.0497
LeftForeArm  -17.6248 -40.5455 -10.8079
LeftHand  -1.7918 -3.31785 23.8049
RightShoulder  0.676623 -6.77124 -32.6113
RightArm  -62.7048 16.8824 19.9594
RightForeArm  -12.2536 55.5126 16.948
RightHand  -5.11407 9.94556 -37.6582
LeftUpLeg  -7.40257 -15.2707 2.6232
LeftLeg  36.576 9.99337 8.3773
LeftFoot  -10.4999 0.0907197 -5.0944
LeftToes  6.82088e-011 -2.45093e-011 5.71991e-013
179
root  -2.2325 40.1921 -8.67541 -175.982 -76.5883 174.667
RightUpLeg  6.43753 -6.71109 -7.8465
RightLeg  20.3275 -7.22265 -3.37652
RightFoot  4.08297 -3.02909 22.3902
RightToes  -5.8209e-011 0 -3.6325e-017
Spine  7.77599 1.63725 1.85683
Spine1  -14.9766 1.99942 -1.32377
HEad  9.45624 -0.870365 -1.66071
LeftShoulder1  0.664994 8.56531 24.685
LeftArm  -58.026 -28.5343 -14.4864
LeftForeArm  -9.14309 -63.3731 -26.382
LeftHand  -1.26378 -2.08641 19.5877
RightShoulder  0.720622 -7.65755 -29.1417
RightArm  -65.3502 13.8724 19.9441
RightForeArm  1.11513 66.5039 29.9808
RightHand  -4.96072 9.67836 -37.1986
LeftUpLeg  -7.13054 -15.5416 -0.315275
LeftLeg  23.622 6.28657 3.37256
LeftFoot  -10.9878 0.110154 -8.40008
LeftToes  6.82088e-011 -2.45093e-011 5.71991e-013
180
root  -3.84984 40.4964 -8.77554 -168.145 -76.493 168.752
RightUpLeg  2.54202 -6.96161 -10.1016
RightLeg  26.0017 -8.45414 -4.69828
RightFoot  12.9908 -4.93635 23.0719
RightToes  -5.8209e-011 0 -3.6325e-017
Spine  4.70592 2.42354 1.0403
Spine1  -12.006 2.61584 -2.35558
HEad  8.00913 -0.805602 -2.7267
LeftShoulder1  0.76576 11.1531 20.952
LeftArm  -64.2073 -22.6314 -11.6979
LeftForeArm  35.8192 -78.1829 -81.7159
LeftHand  -0.756941 0.0351219 16.6002
RightShoulder  0.808354 -9.10948 -25.7625
RightArm  -74.2881 11.0266 19.0228
RightForeArm  58.9019 78.4857 89.9158
RightHand  -4.58903 9.25593 -35.5479
LeftUpLeg  -9.0972 -12.0189 -2.73692
LeftLeg  15.305 0.650204 0.589186
LeftFoot  -7.02206 0.491015 -12.1077
LeftToes  6.82088e-011 -2.45093e-011 5.71991e-013
181
root  -5.22089 40.2226 -8.89842 -161.22 -77.5516 161.243
RightUpLeg  -0.270587 -6.25843 -11.9654
RightLeg  35.1298 -8.45853 -6.56719
RightFoot  18.2583 -6.01173 22.9792
RightToes  -5.8209e-011 0 -3.6325e-017
Spine  7.10016 2.66343 -2.93813
Spine1  -11.8741 2.23888 0.620116
HEad  5.97968 -0.683399 -4.33348
LeftShoulder1  1.0431 14.2048 20.613
LeftArm  -71.3914 -16.643 -9.55894
LeftForeArm  86.0944 -73.0489 -136.19
LeftHand  -0.664111 0.886267 17.1088
RightShoulder  0.964706 -10.1913 -25.786
RightArm  -82.8323 7.64285 17.6934
RightForeArm  110.916 70.3725 145.681
RightHand  -4.49785 9.01582 -35.4269
LeftUpLeg  -10.3803 -5.17347 -6.0543
LeftLeg  14.0661 -2.29184 -0.149908
LeftFoot  -1.55823 0.79075 -9.40697
LeftToes  6.82088e-011 -2.45093e-011 5.71991e-013
182
root  -6.39926 39.4793 -8.94907 -157.373 -80.3929 154.296
RightUpLeg  -1.17349 -5.61802 -12.7683
RightLeg  45.8732 -5.85445 -6.66043
RightFoot  19.9128 -6.2293 22.5229
RightToes  -5.8209e-011 0 -3.6325e-017
Spine  14.2459 2.2365 -4.54638
Spine1  -14.196 1.20533 2.03267
HEad  3.05675 -0.854217 -5.14324
LeftShoulder1  1.47719 17.1206 21.8672
LeftArm  -80.3873 -14.985 -8.23448
LeftForeArm  99.003 -66.8561 -149.919
LeftHand  -0.637956 1.3744 18.3789
RightShoulder  1.2728 -11.2733 -27.9922
RightArm  -91.2369 4.57971 16.9811
RightForeArm  121.471 61.997 157.135
RightHand  -4.58017 8.72574 -36.7132
LeftUpLeg  -10.1552 -1.7018 -8.32518
LeftLeg  19.6538 0.259191 0.244704
LeftFoot  -1.74283 0.139067 -0.927435
LeftToes  6.82088e-011 -2.45093e-011 5.71991e-013
183
root  -7.58949 38.479 -9.01672 -149.82 -83.4729 143.538
RightUpLeg  -2.31494 -5.53029 -13.36
RightLeg  56.3658 -2.68138 -4.76668
RightFoot  18.769 -5.72443 21.5475
RightToes  -5.8209e-011 0 -3.6325e-017
Spine  20.0983 1.43817 -4.15866
Spine1  -15.3471 0.0930573 1.10537
HEad  -1.06798 -1.40743 -4.63938
LeftShoulder1  1.67528 17.3792 23.2567
LeftArm  -88.0517 -18.8315 -7.43111
LeftForeArm  98.8798 -66.207 -150.974
LeftHand  -0.546335 1.90973 18.1312
RightShoulder  1.50717 -12.0519 -29.3864
RightArm  -97.762 4.88942 17.6421
RightForeArm  125.786 58.4384 160.429
RightHand  -4.63217 8.72943 -37.0907
LeftUpLeg  -8.8855 -1.81028 -9.81293
LeftLeg  27.7843 3.17654 2.18495
LeftFoot  -9.11754 -0.0643332 5.93655
LeftToes  6.82088e-011 -2.45093e-011 5.71991e-013
184
root  -8.97961 37.5609 -9.23615 -129.771 -84.396 121.921
RightUpLeg  -5.0467 -4.90813 -15.1325
RightLeg  64.4229 -1.20719 -3.43303
RightFoot  15.8404 -4.82488 20.227
RightToes  -5.8209e-011 0 -3.6325e-017
Spine  21.0898 1.24184 -6.7145
Spine1  -14.0063 -0.841504 1.67769
HEad  -4.85622 -2.18137 -3.37756
LeftShoulder1  1.43375 13.5249 25.9368
LeftArm  -88.0349 -25.25 -7.59187
LeftForeArm  79.0292 -74.0023 -127.936
LeftHand  -0.620011 1.42615 18.0806
RightShoulder  1.43327 -11.5132 -29.6629
RightArm  -95.759 10.5666 19.0557
RightForeArm  122.282 64.4677 154.012
RightHand  -4.85576 9.24658 -37.4699
LeftUpLeg  -7.16127 -3.15294 -11.7047
LeftLeg  33.8241 3.76623 3.0666
LeftFoot  -17.744 0.568176 8.52432
LeftToes  6.82088e-011 -2.45093e-011 5.71991e-013
185
root  -10.6227 37.1794 -9.54422 -113.31 -82.9759 105.295
RightUpLeg  -8.46754 -3.24134 -17.3105
RightLeg  67.3271 -1.40787 -4.42604
RightFoot  12.1645 -3.79436 18.4895
RightToes  -5.8209e-011 0 -3.6325e-017
Spine  17.833 1.55704 -12.1515
Spine1  -11.2265 -1.5927 4.53115
HEad  -5.85184 -2.80569 -2.37474
LeftShoulder1  0.777849 7.91785 29.5485
LeftArm  -81.1296 -31.2873 -7.97528
LeftForeArm  4.79723 -71.8036 -43.0993
LeftHand  -0.989762 -0.416201 19.7389
RightShoulder  1.12184 -9.5961 -30.2611
RightArm  -85.6054 18.3631 19.9447
RightForeArm  80.4356 76.988 108.741
RightHand  -5.05912 9.47058 -38.3818
LeftUpLeg  -4.35896 -2.53805 -13.625
LeftLeg  34.7531 2.35739 2.17099
LeftFoot  -21.8927 0.95651 8.96823
LeftToes  6.82088e-011 -2.45093e-011 5.71991e-013
186
root  -12.4663 37.5828 -9.74064 -114.172 -82.2532 106.512
RightUpLeg  -10.9667 -1.58751 -17.5878
RightLeg  63.5621 -3.39857 -7.82052
RightFoot  8.23474 -2.79716 16.4375
RightToes  -5.8209e-011 0 -3.6325e-017
Spine  12.8732 0.978949 -14.8716
Spine1  -8.61696 -2.26782 6.57016
HEad  -3.39207 -2.55615 -2.43935
LeftShoulder1  0.157986 4.26303 31.9131
LeftArm  -68.2648 -35.7077 -9.58745
LeftForeArm  -15.4194 -47.9395 -12.1195
LeftHand  -1.49338 -2.43525 22.1759
RightShoulder  0.725684 -7.23516 -31.2812
RightArm  -72.157 23.5194 20.41
RightForeArm  0.187167 68.179 28.6526
RightHand  -4.9858 9.40177 -38.0284
LeftUpLeg  0.180598 -1.03606 -13.7517
LeftLeg  30.6433 1.60703 1.40037
LeftFoot  -20.6003 0.783476 8.08732
LeftToes  6.82088e-011 -2.45093e-011 5.71991e-013
187
root  -14.3855 38.5485 -9.76019 -128.228 -83.5027 121.35
RightUpLeg  -11.8171 -1.17829 -15.0321
RightLeg  53.6762 -7.71406 -11.3888
RightFoot  3.88845 -2.02214 15.2719
RightToes  -5.8209e-011 0 -3.6325e-017
Spine  8.78548 -0.465596 -11.6354
Spine1  -7.54832 -2.66217 6.20907
HEad  0.55147 -0.950253 -3.45881
LeftShoulder1  0.0318813 3.68109 31.2903
LeftArm  -52.1178 -36.7309 -13.6856
LeftForeArm  -15.5652 -38.8787 -9.59208
LeftHand  -1.77601 -3.26463 23.8498
RightShoulder  0.381125 -5.42899 -31.2456
RightArm  -59.5342 24.7892 20.9179
RightForeArm  -10.5789 59.7861 20.1101
RightHand  -4.95275 9.47092 -37.6334
LeftUpLeg  5.32911 -0.48348 -11.6637
LeftLeg  24.2017 2.33557 1.47174
LeftFoot  -15.6545 0.308844 5.41622
LeftToes  6.82088e-011 -2.45093e-011 5.71991e-013
